<svg version="1.1" id="Layer_1" xmlns="http://www.w3.org/2000/svg" x="0px" y="0px"
	 width="100%" viewBox="0 0 2363 2363" enable-background="new 0 0 2363 2363" xml:space="preserve">
<path fill="#FEFEFE" opacity="1.000000" stroke="none" 
	d="
M1520.000000,2366.000000 
	C1013.333313,2366.000000 507.666656,2366.000000 2.000000,2366.000000 
	C2.000000,1578.000000 2.000000,790.000000 2.000000,2.000000 
	C790.000000,2.000000 1578.000000,2.000000 2366.000000,2.000000 
	C2366.000000,790.000000 2366.000000,1578.000000 2366.000000,2366.000000 
	C2084.333252,2366.000000 1802.666626,2366.000000 1520.000000,2366.000000 
M1347.000000,2264.003174 
	C1472.168457,2264.003174 1597.336792,2264.003174 1722.580322,2264.003174 
	C1722.580322,1850.895508 1722.580322,1439.071533 1722.580322,1027.094116 
	C1526.536255,1027.094116 1331.103882,1027.094116 1135.403198,1027.094116 
	C1134.993896,1029.276367 1134.590210,1030.867310 1134.408203,1032.483154 
	C1131.016602,1062.598633 1128.014160,1092.763062 1124.207153,1122.825562 
	C1115.457397,1191.918945 1101.873169,1260.100952 1084.872070,1327.628296 
	C1045.956421,1482.199219 988.763977,1629.893921 917.928650,1772.484009 
	C858.244385,1892.627319 786.485046,2004.822266 698.900879,2106.696289 
	C654.535034,2158.300781 607.354187,2207.229248 559.281799,2255.336670 
	C556.873840,2257.746338 554.661499,2260.351318 551.315613,2264.003174 
	C817.139160,2264.003174 1081.069580,2264.003174 1347.000000,2264.003174 
M1724.082275,655.000000 
	C1724.082275,471.507843 1724.082275,288.015717 1724.082275,104.443253 
	C1483.911133,104.443253 1245.086670,104.443253 1005.158569,104.443253 
	C1006.630127,108.553528 1007.895569,111.905602 1009.035522,115.299782 
	C1025.348877,163.871841 1042.769043,212.106735 1057.715942,261.096100 
	C1090.622437,368.949432 1113.786987,478.989105 1126.224976,591.099121 
	C1131.842773,641.734558 1136.706665,692.537720 1139.342896,743.397949 
	C1142.395020,802.281677 1142.614624,861.312012 1144.091553,920.278015 
	C1144.155640,922.836487 1144.496948,925.388000 1144.698486,927.814697 
	C1165.151001,929.902954 1716.607788,928.953735 1724.082275,926.757080 
	C1724.082275,836.926575 1724.082275,746.963318 1724.082275,655.000000 
z"/>
<path fill="#010101" opacity="1.000000" stroke="none" 
	d="
M1346.000000,2264.003174 
	C1081.069580,2264.003174 817.139160,2264.003174 551.315613,2264.003174 
	C554.661499,2260.351318 556.873840,2257.746338 559.281799,2255.336670 
	C607.354187,2207.229248 654.535034,2158.300781 698.900879,2106.696289 
	C786.485046,2004.822266 858.244385,1892.627319 917.928650,1772.484009 
	C988.763977,1629.893921 1045.956421,1482.199219 1084.872070,1327.628296 
	C1101.873169,1260.100952 1115.457397,1191.918945 1124.207153,1122.825562 
	C1128.014160,1092.763062 1131.016602,1062.598633 1134.408203,1032.483154 
	C1134.590210,1030.867310 1134.993896,1029.276367 1135.403198,1027.094116 
	C1331.103882,1027.094116 1526.536255,1027.094116 1722.580322,1027.094116 
	C1722.580322,1439.071533 1722.580322,1850.895508 1722.580322,2264.003174 
	C1597.336792,2264.003174 1472.168457,2264.003174 1346.000000,2264.003174 
z"/>
<path fill="#DE0025" opacity="1.000000" stroke="none" 
	d="
M1724.082275,656.000000 
	C1724.082275,746.963318 1724.082275,836.926575 1724.082275,926.757080 
	C1716.607788,928.953735 1165.151001,929.902954 1144.698486,927.814697 
	C1144.496948,925.388000 1144.155640,922.836487 1144.091553,920.278015 
	C1142.614624,861.312012 1142.395020,802.281677 1139.342896,743.397949 
	C1136.706665,692.537720 1131.842773,641.734558 1126.224976,591.099121 
	C1113.786987,478.989105 1090.622437,368.949432 1057.715942,261.096100 
	C1042.769043,212.106735 1025.348877,163.871841 1009.035522,115.299782 
	C1007.895569,111.905602 1006.630127,108.553528 1005.158569,104.443253 
	C1245.086670,104.443253 1483.911133,104.443253 1724.082275,104.443253 
	C1724.082275,288.015717 1724.082275,471.507843 1724.082275,656.000000 
z"/>
</svg>